Coordinates
nRows=5
nColumns=24

# SIMM Motion File Header:
name Coordinates
datacolumns 24
datarows 5
otherdata 1
range 0.57067000000000001000 0.57467000000000001000
endheader
time	pelvis_tx	pelvis_ty	pelvis_tz	pelvis_tilt	pelvis_list	pelvis_rotation	hip_flexion_r	hip_adduction_r	hip_rotation_r	knee_angle_r	ankle_angle_r	subtalar_angle_r	mtp_angle_r	hip_flexion_l	hip_adduction_l	hip_rotation_l	knee_angle_l	ankle_angle_l	subtalar_angle_l	mtp_angle_l	lumbar_extension	lumbar_bending	lumbar_rotation
      0.57067000000000001000	      1.25878366781093120000	      0.93194811946556544000	     -0.24134690958357324000	      2.62236875590334200000	     -4.03867798117709590000	      7.91833763374610730000	     25.20886362278881900000	      1.26069680392729080000	     -2.10759274237350440000	    -27.81378103809580800000	     -3.91065276139038250000	     -0.00000000000000043956	      0.00000000000001424589	    -21.25729062164787200000	     -9.30069146758136610000	      0.29256599859031490000	    -27.85767714244486000000	    -16.37336563174807600000	     -0.00000000000010893934	     -0.00000000000010656335	     -7.50284577594191400000	      5.59493146100181170000	     -8.28797817766703030000
      0.57167000000000001000	      1.26054331472427840000	      0.93214204123878375000	     -0.24120362969468992000	      2.62420236801721930000	     -4.09763760945549650000	      7.91922808610520330000	     25.12784531821599600000	      1.34719357884497180000	     -2.12991735386932700000	    -27.88465056664972200000	     -3.73533392218668330000	     -0.00000000000000068200	      0.00000000000001420991	    -21.11993338674802700000	     -9.38802869418438850000	      0.21030890292493443000	    -28.12117004496465000000	    -16.85058604960278600000	     -0.00000000000010916429	     -0.00000000000010647049	     -7.49466042440484780000	      5.66942314031354400000	     -8.29883263099755370000
      0.57267000000000001000	      1.26230296163762560000	      0.93233596301200206000	     -0.24106034980580660000	      2.62603598013109660000	     -4.15659723773389800000	      7.92011853846429940000	     25.04682701364317100000	      1.43369035376265310000	     -2.15224196536514920000	    -27.95552009520363500000	     -3.56001508298298350000	     -0.00000000000000092443	      0.00000000000001417394	    -20.98257615184817800000	     -9.47536592078741080000	      0.12805180725955398000	    -28.38466294748443600000	    -17.32780646745749900000	     -0.00000000000010938923	     -0.00000000000010637763	     -7.48647507286778250000	      5.74391481962527630000	     -8.30968708432807720000
      0.57367000000000001000	      1.26405368838077960000	      0.93253363994891347000	     -0.24092506899754901000	      2.62664872124197050000	     -4.21440779129051890000	      7.92264983491642210000	     24.96292228122365100000	      1.51744675956670920000	     -2.17367853287513530000	    -28.01813206433170900000	     -3.38566660415267910000	     -0.00000000000000118431	      0.00000000000001412591	    -20.83845770918581400000	     -9.56073542375600200000	      0.05033038914266990000	    -28.65395033706382900000	    -17.79275849054852500000	     -0.00000000000010961828	     -0.00000000000010624020	     -7.47769042068556990000	      5.81837032659191420000	     -8.32381069529327000000
      0.57467000000000001000	      1.26580144173386920000	      0.93273256860705589000	     -0.24079245454949999000	      2.62685450535184370000	     -4.27183531993988020000	      7.92572807939955220000	     24.87805540618856500000	      1.60028970899955820000	     -2.19481908572317640000	    -28.07799151365117000000	     -3.21164157878017200000	     -0.00000000000000144999	      0.00000000000001407386	    -20.69208553060261800000	     -9.64544901884645260000	     -0.02587913645805076100	    -28.92516922232975300000	    -18.25362104871833300000	     -0.00000000000010984871	     -0.00000000000010608790	     -7.46870600162164330000	      5.89281377611018620000	     -8.33902402547001920000
